<?xml version="1.0" encoding="UTF-8"?>
<svg version="1.1" xmlns="http://www.w3.org/2000/svg" width="256" height="256">
<path d="M0 0 C11.73034975 10.28899593 21.43283449 21.21004122 29.42285156 34.64404297 C29.77234863 35.21719238 30.1218457 35.7903418 30.48193359 36.38085938 C48.36618908 66.0029713 49.35559428 100.37830699 43.42285156 133.64404297 C44.41285156 133.64404297 45.40285156 133.64404297 46.42285156 133.64404297 C45.84291914 140.63571243 43.94962832 146.86895112 41.74707031 153.51123047 C41.19742363 155.18513351 41.19742363 155.18513351 40.63667297 156.89285278 C39.86304377 159.23895458 39.08539443 161.58373413 38.30395508 163.92724609 C37.10904586 167.52297208 35.93839098 171.12603105 34.76855469 174.72998047 C34.01286202 177.01171745 33.25574991 179.29298491 32.49707031 181.57373047 C32.14899826 182.65387421 31.80092621 183.73401794 31.44230652 184.84689331 C31.10548355 185.84197906 30.76866058 186.83706482 30.42163086 187.86230469 C30.13152634 188.73974335 29.84142181 189.61718201 29.54252625 190.52120972 C28.16972285 193.12395919 27.19780269 193.74392344 24.42285156 194.64404297 C19.15538958 194.29863563 14.44811241 193.21443698 9.42285156 191.64404297 C8.72160156 192.36978516 8.02035156 193.09552734 7.29785156 193.84326172 C-12.80603984 213.91185837 -42.3727903 227.69813103 -70.83496094 227.84716797 C-71.70047577 227.85286804 -72.5659906 227.85856812 -73.45773315 227.86444092 C-75.2813802 227.87383556 -77.10504381 227.8804027 -78.92871094 227.88427734 C-81.6738156 227.89394321 -84.4181576 227.9250034 -87.16308594 227.95654297 C-100.79306673 228.0399745 -112.97536824 226.41212911 -125.82714844 221.58154297 C-126.61653809 221.28699219 -127.40592773 220.99244141 -128.21923828 220.68896484 C-141.05868977 215.70306706 -154.31606275 208.86433317 -164.15917969 199.06982422 C-166.94313017 196.36823928 -166.94313017 196.36823928 -170.61401367 195.66748047 C-171.32243408 195.78349609 -172.03085449 195.89951172 -172.76074219 196.01904297 C-174.02015625 196.22529297 -175.27957031 196.43154297 -176.57714844 196.64404297 C-177.44057617 194.9171875 -178.30397457 193.19031735 -179.16723633 191.46337891 C-179.90418396 189.98981154 -180.64165898 188.51650781 -181.37963867 187.04345703 C-182.92364349 183.96019505 -184.46394237 180.87614704 -185.97558594 177.77685547 C-188.7768912 172.04264 -191.92038648 166.57506062 -195.22167969 161.11279297 C-196.57714844 158.64404297 -196.57714844 158.64404297 -196.57714844 156.64404297 C-197.18848633 156.54438232 -197.79982422 156.44472168 -198.4296875 156.34204102 C-202.10672009 155.14688001 -203.47509916 151.63881006 -205.32714844 148.45654297 C-205.73835937 147.79589844 -206.14957031 147.13525391 -206.57324219 146.45458984 C-208.97138124 142.4191831 -210.29226088 139.47105197 -209.57714844 134.64404297 C-208.58714844 133.65404297 -208.58714844 133.65404297 -207.57714844 132.64404297 C-207.76801802 129.9349263 -208.0720105 127.32803055 -208.45214844 124.64404297 C-212.81758898 88.65620261 -207.16723441 56.49705439 -187.20214844 26.14404297 C-186.55874512 25.16346924 -186.55874512 25.16346924 -185.90234375 24.16308594 C-184.85104699 22.61634566 -183.72091667 21.1237134 -182.57714844 19.64404297 C-181.91714844 19.64404297 -181.25714844 19.64404297 -180.57714844 19.64404297 C-180.31160156 19.06267578 -180.04605469 18.48130859 -179.77246094 17.88232422 C-167.60800352 -4.89621859 -136.33858057 -18.30212662 -113.00683594 -25.44970703 C-74.744607 -35.55999987 -30.01428811 -25.80485389 0 0 Z " fill="#FD1B1B" transform="translate(209.5771484375,28.35595703125)"/>
<path d="M0 0 C6.83209662 5.06270632 12.81363528 11.73797295 14.359375 20.37109375 C15.41730632 32.04302457 12.99824417 40.45923046 5.609375 49.55859375 C4.20728685 51.17551798 2.79564022 52.78445033 1.359375 54.37109375 C3.009375 55.03109375 4.659375 55.69109375 6.359375 56.37109375 C6.606875 55.58734375 6.854375 54.80359375 7.109375 53.99609375 C8.59026966 50.88621496 9.2112543 50.56227455 12.359375 49.37109375 C16.35411631 48.822593 20.33143382 48.63378557 24.359375 48.37109375 C25.679375 44.08109375 26.999375 39.79109375 28.359375 35.37109375 C50.139375 35.37109375 71.919375 35.37109375 94.359375 35.37109375 C94.359375 43.73300923 93.99218643 49.51318877 92.359375 57.37109375 C98.629375 58.69109375 104.899375 60.01109375 111.359375 61.37109375 C110.23378527 70.37581157 110.23378527 70.37581157 108.7487793 74.92919922 C108.42141281 75.94319794 108.09404633 76.95719666 107.75675964 78.00192261 C107.22554253 79.60392014 107.22554253 79.60392014 106.68359375 81.23828125 C106.31716263 82.35421661 105.95073151 83.47015198 105.57319641 84.61990356 C104.79956721 86.96600536 104.02191787 89.31078491 103.24047852 91.65429688 C102.0455693 95.25002286 100.87491442 98.85308183 99.70507812 102.45703125 C98.94938546 104.73876823 98.19227335 107.02003569 97.43359375 109.30078125 C96.91148567 110.92099686 96.91148567 110.92099686 96.37882996 112.57394409 C96.04200699 113.56902985 95.70518402 114.5641156 95.3581543 115.58935547 C95.06804977 116.46679413 94.77794525 117.34423279 94.47904968 118.2482605 C93.10624629 120.85100997 92.13432613 121.47097422 89.359375 122.37109375 C84.09191302 122.02568641 79.38463585 120.94148776 74.359375 119.37109375 C73.658125 120.09683594 72.956875 120.82257813 72.234375 121.5703125 C52.13048359 141.63890915 22.56373314 155.42518181 -5.8984375 155.57421875 C-6.76395233 155.57991882 -7.62946716 155.5856189 -8.52120972 155.5914917 C-10.34485677 155.60088634 -12.16852037 155.60745348 -13.9921875 155.61132812 C-16.73729216 155.62099399 -19.48163416 155.65205418 -22.2265625 155.68359375 C-35.8565433 155.76702529 -48.0388448 154.13917989 -60.890625 149.30859375 C-61.68001465 149.01404297 -62.4694043 148.71949219 -63.28271484 148.41601562 C-76.12216633 143.43011785 -89.37953931 136.59138395 -99.22265625 126.796875 C-102.00660673 124.09529006 -102.00660673 124.09529006 -105.67749023 123.39453125 C-106.38591064 123.51054687 -107.09433105 123.6265625 -107.82421875 123.74609375 C-109.08363281 123.95234375 -110.34304687 124.15859375 -111.640625 124.37109375 C-112.50405273 122.64423828 -113.36745113 120.91736814 -114.23071289 119.19042969 C-114.96766052 117.71686232 -115.70513554 116.24355859 -116.44311523 114.77050781 C-117.98712005 111.68724583 -119.52741893 108.60319782 -121.0390625 105.50390625 C-123.84036776 99.76969078 -126.98386304 94.3021114 -130.28515625 88.83984375 C-131.640625 86.37109375 -131.640625 86.37109375 -131.640625 84.37109375 C-132.25196289 84.27143311 -132.86330078 84.17177246 -133.49316406 84.0690918 C-137.17019666 82.87393079 -138.53857572 79.36586084 -140.390625 76.18359375 C-140.80183594 75.52294922 -141.21304688 74.86230469 -141.63671875 74.18164062 C-144.02274911 70.16660947 -145.44597169 67.1684607 -144.640625 62.37109375 C-142.70454068 60.06445485 -140.79149053 58.78131489 -138.06640625 57.546875 C-137.39931641 57.24072266 -136.73222656 56.93457031 -136.04492188 56.61914062 C-135.35462891 56.31041016 -134.66433594 56.00167969 -133.953125 55.68359375 C-133.25123047 55.36326172 -132.54933594 55.04292969 -131.82617188 54.71289062 C-130.10037357 53.92630228 -128.3708539 53.14788778 -126.640625 52.37109375 C-126.888125 50.94796875 -126.888125 50.94796875 -127.140625 49.49609375 C-127.70754004 44.81904469 -127.640625 40.08237601 -127.640625 35.37109375 C-106.520625 35.37109375 -85.400625 35.37109375 -63.640625 35.37109375 C-58.640625 47.37109375 -58.640625 47.37109375 -58.640625 49.37109375 C-58.07214844 49.14292969 -57.50367187 48.91476563 -56.91796875 48.6796875 C-51.61908526 46.70698129 -48.1600859 46.07930503 -42.640625 47.37109375 C-43.16462891 46.46617187 -43.16462891 46.46617187 -43.69921875 45.54296875 C-44.15425781 44.74375 -44.60929687 43.94453125 -45.078125 43.12109375 C-45.53058594 42.3321875 -45.98304687 41.54328125 -46.44921875 40.73046875 C-50.04907356 33.60157595 -49.74863017 24.09827002 -47.515625 16.55859375 C-44.11974838 7.93464662 -37.8208095 1.33266498 -29.48046875 -2.6640625 C-19.63403388 -6.39771946 -8.98224936 -5.54082542 0 0 Z " fill="#3B69A6" transform="translate(144.640625,100.62890625)"/>
<path d="M0 0 C11.73034975 10.28899593 21.43283449 21.21004122 29.42285156 34.64404297 C29.77234863 35.21719238 30.1218457 35.7903418 30.48193359 36.38085938 C48.36618908 66.0029713 49.35559428 100.37830699 43.42285156 133.64404297 C41.52591296 133.35965345 39.63033129 133.06620505 37.73535156 132.76904297 C36.67960938 132.60662109 35.62386719 132.44419922 34.53613281 132.27685547 C31.62490243 131.68511228 29.13329549 130.84086237 26.42285156 129.64404297 C26.555625 128.97759766 26.68839844 128.31115234 26.82519531 127.62451172 C27.09009766 126.24199219 27.09009766 126.24199219 27.36035156 124.83154297 C27.534375 123.93822266 27.70839844 123.04490234 27.88769531 122.12451172 C28.62535685 117.32701956 28.98340262 112.47798134 29.42285156 107.64404297 C7.64285156 107.64404297 -14.13714844 107.64404297 -36.57714844 107.64404297 C-36.90714844 109.95404297 -37.23714844 112.26404297 -37.57714844 114.64404297 C-38.41192112 117.09645804 -39.47274007 119.29117297 -40.57714844 121.64404297 C-41.39699219 121.69302734 -42.21683594 121.74201172 -43.06152344 121.79248047 C-44.13917969 121.86724609 -45.21683594 121.94201172 -46.32714844 122.01904297 C-47.92816406 122.12345703 -47.92816406 122.12345703 -49.56152344 122.22998047 C-52.40868578 122.62091209 -54.21276289 123.03804524 -56.57714844 124.64404297 C-57.38886072 127.19924218 -57.38886072 127.19924218 -57.57714844 129.64404297 C-59.55714844 128.65404297 -61.53714844 127.66404297 -63.57714844 126.64404297 C-62.28208469 123.78873575 -60.89602466 121.80383728 -58.70214844 119.58154297 C-52.75932136 112.73563923 -50.85485609 104.49145343 -51.19042969 95.56982422 C-52.2956473 87.20812737 -55.98468352 80.30393838 -62.61621094 75.01904297 C-70.48136604 69.39721389 -77.9620688 67.71548388 -87.57714844 68.64404297 C-95.71975225 70.15193256 -102.49905177 74.50764892 -107.44042969 81.14794922 C-112.63908318 89.47323918 -113.27543351 96.9041701 -112.57714844 106.64404297 C-111.85385802 109.27888663 -110.87498008 111.19812949 -109.57714844 113.64404297 C-108.8887833 115.63667888 -108.21433444 117.63445634 -107.57714844 119.64404297 C-108.54652344 119.60279297 -109.51589844 119.56154297 -110.51464844 119.51904297 C-115.02604568 119.50055364 -119.22552496 120.53886875 -123.57714844 121.64404297 C-124.22710141 120.22926162 -124.87193566 118.8121281 -125.51464844 117.39404297 C-125.87429687 116.60513672 -126.23394531 115.81623047 -126.60449219 115.00341797 C-127.57714844 112.64404297 -127.57714844 112.64404297 -128.57714844 108.64404297 C-160.25714844 108.14904297 -160.25714844 108.14904297 -192.57714844 107.64404297 C-191.91714844 113.25404297 -191.25714844 118.86404297 -190.57714844 124.64404297 C-192.66027344 125.79904297 -194.74339844 126.95404297 -196.88964844 128.14404297 C-197.86671753 128.6922168 -197.86671753 128.6922168 -198.86352539 129.25146484 C-201.65700389 130.77730354 -203.34703836 131.64404297 -206.57714844 131.64404297 C-206.89139629 129.95686758 -207.20344999 128.26928348 -207.51464844 126.58154297 C-207.68867188 125.64181641 -207.86269531 124.70208984 -208.04199219 123.73388672 C-208.21859375 122.71423828 -208.39519531 121.69458984 -208.57714844 120.64404297 C-208.75890625 119.61794922 -208.94066406 118.59185547 -209.12792969 117.53466797 C-212.96431958 84.30819555 -205.45055888 53.88718473 -187.20214844 26.14404297 C-186.55874512 25.16346924 -186.55874512 25.16346924 -185.90234375 24.16308594 C-184.85104699 22.61634566 -183.72091667 21.1237134 -182.57714844 19.64404297 C-181.91714844 19.64404297 -181.25714844 19.64404297 -180.57714844 19.64404297 C-180.31160156 19.06267578 -180.04605469 18.48130859 -179.77246094 17.88232422 C-167.60800352 -4.89621859 -136.33858057 -18.30212662 -113.00683594 -25.44970703 C-74.744607 -35.55999987 -30.01428811 -25.80485389 0 0 Z M-166.23730469 27.48388672 C-178.25927882 41.32680902 -185.29694516 56.42119478 -190.38964844 73.95654297 C-190.60911133 74.69751221 -190.82857422 75.43848145 -191.0546875 76.2019043 C-191.25416992 76.92144287 -191.45365234 77.64098145 -191.65917969 78.38232422 C-191.83682861 79.01178955 -192.01447754 79.64125488 -192.19750977 80.28979492 C-192.74734527 83.69948221 -192.57714844 87.19030782 -192.57714844 90.64404297 C-171.12714844 90.64404297 -149.67714844 90.64404297 -127.57714844 90.64404297 C-126.25714844 86.35404297 -124.93714844 82.06404297 -123.57714844 77.64404297 C-121.28684373 74.31269066 -119.26771641 71.55524977 -116.57714844 68.64404297 C-115.79339844 67.75716797 -115.00964844 66.87029297 -114.20214844 65.95654297 C-103.71494821 56.71781896 -93.17727009 52.82685123 -79.22949219 53.39794922 C-67.45044104 54.19161791 -55.22681619 59.62211564 -47.25292969 68.48388672 C-42.36052443 74.79041377 -39.11254657 80.97016296 -37.12011719 88.71044922 C-36.75011617 90.63427795 -36.75011617 90.63427795 -35.57714844 91.64404297 C-33.58283114 91.73809439 -31.58515301 91.76147546 -29.58862305 91.75756836 C-27.66674416 91.75745506 -27.66674416 91.75745506 -25.70603943 91.75733948 C-24.29718996 91.75223206 -22.88834088 91.74701606 -21.47949219 91.74169922 C-20.04602609 91.73983499 -18.61255936 91.73841111 -17.17909241 91.7374115 C-13.39954887 91.73358669 -9.62004354 91.72375673 -5.84051514 91.71270752 C-1.98645545 91.7024926 1.86761038 91.69791371 5.72167969 91.69287109 C13.28875443 91.68213442 20.85579765 91.66505846 28.42285156 91.64404297 C28.53299732 86.72836261 28.60059942 82.15338169 27.28613281 77.37451172 C27.04113037 76.471604 26.79612793 75.56869629 26.54370117 74.63842773 C26.2769458 73.71215576 26.01019043 72.78588379 25.73535156 71.83154297 C25.32651733 70.38122681 25.32651733 70.38122681 24.90942383 68.90161133 C22.27926513 59.78224663 19.57624687 50.88290355 13.63769531 43.31982422 C12.3207623 41.50321887 11.45042213 39.66806256 10.48535156 37.64404297 C1.16167228 20.54575965 -16.7824906 8.45532472 -33.57714844 -0.35595703 C-34.94613281 -1.08105469 -34.94613281 -1.08105469 -36.34277344 -1.82080078 C-50.61114057 -8.84818519 -66.1199784 -10.5355161 -81.82714844 -10.54345703 C-83.71626953 -10.56182617 -83.71626953 -10.56182617 -85.64355469 -10.58056641 C-117.66143624 -10.6304385 -144.71609156 4.50896463 -166.23730469 27.48388672 Z " fill="#030202" transform="translate(209.5771484375,28.35595703125)"/>
<path d="M0 0 C-0.33 2.64 -0.66 5.28 -1 8 C2.27077164 8.16789217 5.54162664 8.33410238 8.8125 8.5 C9.74126953 8.54769531 10.67003906 8.59539062 11.62695312 8.64453125 C12.9659668 8.71220703 12.9659668 8.71220703 14.33203125 8.78125 C15.56530151 8.8440918 15.56530151 8.8440918 16.82348633 8.90820312 C18.54772929 8.98092498 20.27422415 9 22 9 C22.495 9.99 22.495 9.99 23 11 C24.32 11 25.64 11 27 11 C27.495 13.475 27.495 13.475 28 16 C30.68539415 16.53466228 33.37232628 17.05294683 36.0625 17.5625 C36.81466797 17.71396484 37.56683594 17.86542969 38.34179688 18.02148438 C43.2334119 18.93204475 47.1155508 18.9794845 52 18 C52.33 16.02 52.66 14.04 53 12 C54.65 12 56.3 12 58 12 C58.3984375 15.15234375 58.3984375 15.15234375 58 19 C55.87026454 21.26169314 54.11668013 22.80999384 51.625 24.5625 C50.98377197 25.03647217 50.34254395 25.51044434 49.68188477 25.9987793 C38.21283528 34.36273394 25.97801223 40.68564123 12.375 44.8125 C11.70718506 45.0194751 11.03937012 45.2264502 10.35131836 45.43969727 C-16.34129503 53.11928016 -47.73236386 48.07237731 -71.85351562 35.0078125 C-79.45472806 30.68341821 -88.3052998 25.62888782 -93 18 C-93.75 14.6875 -93.75 14.6875 -94 12 C-93.19949219 12.6496875 -93.19949219 12.6496875 -92.3828125 13.3125 C-87.41461757 17.02575296 -83.76571197 18.84929005 -77.5078125 18.4765625 C-73.34246216 17.68501617 -69.71156061 16.00818738 -66 14 C-66 15.98 -66 17.96 -66 20 C-63.24852219 19.54943049 -60.49906366 19.08988231 -57.75 18.625 C-56.58404297 18.43550781 -56.58404297 18.43550781 -55.39453125 18.2421875 C-54.64042969 18.11328125 -53.88632813 17.984375 -53.109375 17.8515625 C-52.41811523 17.73635254 -51.72685547 17.62114258 -51.01464844 17.50244141 C-48.67638967 16.9192935 -46.97877513 16.4006878 -45 15 C-44.29823412 12.58320293 -44.29823412 12.58320293 -44.25 9.875 C-44.16492188 8.50988281 -44.16492188 8.50988281 -44.078125 7.1171875 C-44.03945312 6.06917969 -44.03945312 6.06917969 -44 5 C-43.47156494 5.25168945 -42.94312988 5.50337891 -42.39868164 5.76269531 C-39.95385044 6.92631658 -37.50818061 8.08816513 -35.0625 9.25 C-34.23169922 9.64574219 -33.40089844 10.04148438 -32.54492188 10.44921875 C-30.86572033 11.24634944 -29.18421253 12.03863913 -27.50048828 12.82617188 C-25.85170713 13.60017498 -24.20919053 14.38768603 -22.57373047 15.18945312 C-21.80561035 15.55490234 -21.03749023 15.92035156 -20.24609375 16.296875 C-19.57118896 16.62526367 -18.89628418 16.95365234 -18.20092773 17.29199219 C-15.43337672 18.30623135 -15.43337672 18.30623135 -10 18 C-10 13.05 -10 8.1 -10 3 C-2.25 0 -2.25 0 0 0 Z " fill="#FBFBFC" transform="translate(146,192)"/>
<path d="M0 0 C0.99 0.165 1.98 0.33 3 0.5 C4.26953125 6.26171875 4.26953125 6.26171875 4 8.5 C-12.27670884 27.5145656 -42.1071101 42.22970884 -67 44.5 C-70.08631501 44.64938763 -73.16818535 44.68694673 -76.2578125 44.703125 C-77.12332733 44.70882507 -77.98884216 44.71452515 -78.88058472 44.72039795 C-80.70423177 44.72979259 -82.52789537 44.73635973 -84.3515625 44.74023438 C-87.09666716 44.74990024 -89.84100916 44.78096043 -92.5859375 44.8125 C-106.2159183 44.89593154 -118.3982198 43.26808614 -131.25 38.4375 C-132.03938965 38.14294922 -132.8287793 37.84839844 -133.64208984 37.54492188 C-145.99310441 32.74869704 -157.99769271 26.2466985 -168 17.5 C-168.68835938 16.91863281 -169.37671875 16.33726562 -170.0859375 15.73828125 C-171.73585755 14.33943599 -173.36995431 12.92195475 -175 11.5 C-172.29954818 9.69969878 -169.93322119 8.56622934 -166.9375 7.375 C-166.05964844 7.02179688 -165.18179688 6.66859375 -164.27734375 6.3046875 C-162 5.5 -162 5.5 -160 5.5 C-160 4.51 -160 3.52 -160 2.5 C-156.74339006 3.96181993 -153.90376063 5.8952133 -150.9777832 7.92675781 C-132.02034098 21.02418762 -111.17993777 27.71149193 -88.1875 27.625 C-87.17107422 27.62886719 -86.15464844 27.63273437 -85.10742188 27.63671875 C-74.9858234 27.62381678 -65.47333116 27.11325232 -55.8125 23.9375 C-55.00151855 23.67428955 -54.19053711 23.4110791 -53.35498047 23.13989258 C-39.08811397 18.32806507 -25.83739098 11.07302506 -14.37890625 1.25390625 C-10.10760252 -1.89521588 -4.99036583 -0.67683099 0 0 Z " fill="#020202" transform="translate(215,211.5)"/>
<path d="M0 0 C25.26015434 2.38303343 47.6615498 18.13972424 64.35546875 36.60546875 C68.05008354 41.07643787 71.15531774 45.63203916 73.796875 50.796875 C75.03392842 53.15660783 75.03392842 53.15660783 76.953125 55.8046875 C79.12740407 59.1988865 80.62925266 62.60847743 82 66.375 C82.38019287 67.40959351 82.38019287 67.40959351 82.76806641 68.46508789 C86.53138852 78.98880468 89 88.71024221 89 100 C67.88 100 46.76 100 25 100 C25 99.67 25 99.34 25 99 C36.55 99 48.1 99 60 99 C56.19794997 71.74929797 56.19794997 71.74929797 47 46 C46.32517578 44.56720703 46.32517578 44.56720703 45.63671875 43.10546875 C35.77586183 23.6893026 20.12969794 10.1883517 0 2 C0 1.34 0 0.68 0 0 Z " fill="#DA1717" transform="translate(149,20)"/>
<path d="M0 0 C6.83209662 5.06270632 12.81363528 11.73797295 14.359375 20.37109375 C15.37800353 31.60940528 13.23369818 40.28644082 6.109375 49.12109375 C2.20235574 53.22897138 2.20235574 53.22897138 -1.00390625 53.76953125 C-3.203125 53.49609375 -3.203125 53.49609375 -6.640625 52.37109375 C-4.48608251 50.01392971 -2.44342626 48.58143231 0.421875 47.18359375 C1.11410156 46.83941406 1.80632812 46.49523437 2.51953125 46.140625 C4.359375 45.37109375 4.359375 45.37109375 6.359375 45.37109375 C5.8540625 44.70464844 5.34875 44.03820312 4.828125 43.3515625 C0.50382446 37.2168901 -1.24443242 33.3213859 -0.6875 25.82421875 C-0.62270091 22.4330663 -1.89148712 20.2134428 -3.640625 17.37109375 C-3.640625 16.71109375 -3.640625 16.05109375 -3.640625 15.37109375 C-4.754375 14.93796875 -4.754375 14.93796875 -5.890625 14.49609375 C-8.640625 13.37109375 -8.640625 13.37109375 -10.515625 12.24609375 C-14.3370139 10.67258067 -17.87440146 10.74122727 -21.765625 12.12890625 C-25.59080587 13.9149282 -28.59890009 15.52784686 -30.640625 19.37109375 C-32.18106924 24.54654311 -32.92227808 30.46211353 -30.69921875 35.5078125 C-28.24810403 39.17295896 -26.03517604 41.24106634 -21.640625 42.37109375 C-21.640625 43.03109375 -21.640625 43.69109375 -21.640625 44.37109375 C-20.155625 44.86609375 -20.155625 44.86609375 -18.640625 45.37109375 C-19.48625 46.25796875 -20.331875 47.14484375 -21.203125 48.05859375 C-23.47147561 50.70828544 -23.47147561 50.70828544 -23.453125 54.24609375 C-23.185 54.94734375 -22.916875 55.64859375 -22.640625 56.37109375 C-24.26953125 57.20703125 -24.26953125 57.20703125 -26.640625 57.37109375 C-28.80231467 55.64055264 -30.65646774 53.96333339 -32.578125 51.99609375 C-36.10567649 48.41085903 -38.55131762 46.17096762 -43.640625 45.37109375 C-44.96875 43.8828125 -44.96875 43.8828125 -45.890625 42.05859375 C-46.20515625 41.46433594 -46.5196875 40.87007812 -46.84375 40.2578125 C-50.16607719 32.3917143 -49.77638824 22.29988087 -46.67578125 14.42578125 C-42.47925451 6.09607158 -36.03663033 -0.17804003 -27.265625 -3.50390625 C-17.92630771 -6.19516749 -8.29476213 -5.11673936 0 0 Z " fill="#F7F7F8" transform="translate(144.640625,100.62890625)"/>
<path d="M0 0 C3.45714134 2.50386328 7.06400939 5.12801877 9 9 C9.82655213 15.53111683 8.81069492 20.62081462 5 26 C2.50910573 28.8699434 -0.04936605 31.59861825 -3 34 C-3.66 34 -4.32 34 -5 34 C-4.6390625 35.24136719 -4.278125 36.48273438 -3.90625 37.76171875 C-3.43715604 39.4035476 -2.96842508 41.04548019 -2.5 42.6875 C-2.26152344 43.50412109 -2.02304687 44.32074219 -1.77734375 45.16210938 C-0.63535132 49.19171125 0.34500623 52.76504847 0 57 C-2.97 57.99 -5.94 58.98 -9 60 C-10.92094308 55.90108626 -12.83462092 51.79884049 -14.74462891 47.69482422 C-15.66491695 45.7193012 -16.58667629 43.7444634 -17.50927734 41.77001953 C-19.15581349 38.24426841 -20.79700526 34.71606563 -22.4375 31.1875 C-22.98180664 30.02428223 -23.52611328 28.86106445 -24.08691406 27.66259766 C-24.59319336 26.57124512 -25.09947266 25.47989258 -25.62109375 24.35546875 C-26.0792749 23.37215576 -26.53745605 22.38884277 -27.00952148 21.37573242 C-28 19 -28 19 -28 17 C-28.99 17.66 -29.98 18.32 -31 19 C-31.99 19 -32.98 19 -34 19 C-35.640625 16.91796875 -35.640625 16.91796875 -37.25 14.1875 C-37.79140625 13.29417969 -38.3328125 12.40085938 -38.890625 11.48046875 C-40 9 -40 9 -39 6 C-28.00057163 -0.5477541 -12.38168393 -5.70892014 0 0 Z " fill="#FBC906" transform="translate(49,156)"/>
<path d="M0 0 C21.78 0 43.56 0 66 0 C66 12.375 66 12.375 64.5 17.1875 C64.2215625 18.10917969 63.943125 19.03085938 63.65625 19.98046875 C63.4396875 20.64691406 63.223125 21.31335938 63 22 C59.62458036 22 57.41699729 21.71020378 54.2265625 20.87109375 C53.3190625 20.64099609 52.4115625 20.41089844 51.4765625 20.17382812 C49.58189122 19.68458767 47.68863591 19.18982911 45.796875 18.68945312 C40.85863761 17.44789911 37.0442273 16.59132783 32 18 C32 21.96 32 25.92 32 30 C28.04 30.99 24.08 31.98 20 33 C17.85563388 25.85211293 16.95409856 19.45898341 17 12 C14.24968413 12.14111883 11.49984582 12.28771165 8.75 12.4375 C7.97269531 12.47681641 7.19539062 12.51613281 6.39453125 12.55664062 C5.26337891 12.61948242 5.26337891 12.61948242 4.109375 12.68359375 C3.07248535 12.73858032 3.07248535 12.73858032 2.01464844 12.79467773 C-0.35620639 12.9878141 -0.35620639 12.9878141 -4 14 C-2.68 9.38 -1.36 4.76 0 0 Z " fill="#FCFCFC" transform="translate(173,136)"/>
<path d="M0 0 C21.12 0 42.24 0 64 0 C69 12 69 12 69 15 C64.71 16.65 60.42 18.3 56 20 C55.67 23.96 55.34 27.92 55 32 C56.65 32 58.3 32 60 32 C60 32.66 60 33.32 60 34 C58.98679687 34.19916016 58.98679687 34.19916016 57.953125 34.40234375 C57.06109375 34.57894531 56.1690625 34.75554687 55.25 34.9375 C54.36828125 35.11152344 53.4865625 35.28554687 52.578125 35.46484375 C50.36764947 35.92368488 48.18487932 36.43336074 46 37 C45.90203125 36.34773438 45.8040625 35.69546875 45.703125 35.0234375 C44.5048531 28.01974485 42.92255905 23.33804724 37.1875 18.75 C31.34166283 15.54052077 25.72326659 14.66092022 19.125 14.75 C18.07989258 14.75580078 18.07989258 14.75580078 17.01367188 14.76171875 C11.74005612 14.85002115 7.0556969 15.55551517 2 17 C-0.17232578 10.75456339 0 7.17123033 0 0 Z " fill="#F7F7F7" transform="translate(17,136)"/>
<path d="M0 0 C1.54238266 0.11583111 3.08390272 0.24316572 4.625 0.375 C5.91277344 0.47941406 5.91277344 0.47941406 7.2265625 0.5859375 C8.59941406 0.79089844 8.59941406 0.79089844 10 1 C11.05316406 1.14566406 12.10632813 1.29132813 13.19140625 1.44140625 C16 3 16 3 16.83300781 4.92773438 C17.4626038 7.46478839 17.91546216 9.97893151 18.3125 12.5625 C18.61864036 14.31423262 18.92710882 16.06556051 19.23828125 17.81640625 C19.4245105 18.98345093 19.4245105 18.98345093 19.61450195 20.17407227 C19.82875802 22.01068735 19.82875802 22.01068735 21 23 C21.25394531 21.78441406 21.50789063 20.56882813 21.76953125 19.31640625 C22.11649642 17.73161937 22.46419042 16.14699194 22.8125 14.5625 C22.97814453 13.76005859 23.14378906 12.95761719 23.31445312 12.13085938 C23.77699753 10.06250042 24.37976241 8.02666263 25 6 C29.32810014 4.55729995 32.6779679 5.93515151 37 7 C35.54591332 15.96080915 32.7338981 24.34229868 29.83203125 32.91552734 C28.99560005 35.38800619 28.16899752 37.86361231 27.34375 40.33984375 C26.81306856 41.92206581 26.28183818 43.50410388 25.75 45.0859375 C25.50411133 45.82137787 25.25822266 46.55681824 25.00488281 47.31454468 C23.86745539 50.66470967 22.70808166 53.89503788 21 57 C18.36 56.34 15.72 55.68 13 55 C12.93941406 53.81921875 12.87882813 52.6384375 12.81640625 51.421875 C12.73197418 49.8645723 12.64732751 48.30728121 12.5625 46.75 C12.52318359 45.97269531 12.48386719 45.19539063 12.44335938 44.39453125 C12.38051758 43.26337891 12.38051758 43.26337891 12.31640625 42.109375 C12.27974854 41.41811523 12.24309082 40.72685547 12.20532227 40.01464844 C11.99324476 37.93371671 11.55491323 36.01427578 11 34 C10.86722656 34.84304687 10.73445312 35.68609375 10.59765625 36.5546875 C10.42105469 37.65039062 10.24445313 38.74609375 10.0625 39.875 C9.88847656 40.96554688 9.71445313 42.05609375 9.53515625 43.1796875 C9 46 9 46 8 48 C4.04 47.505 4.04 47.505 0 47 C-0.6045009 39.98778952 -0.6045009 39.98778952 1.078125 37.23828125 C2.34691305 35.790842 3.67173431 34.39305914 5 33 C6.05885037 29.8234489 6.20049266 27.40011989 6.25 24.0625 C6.27578125 23.02222656 6.3015625 21.98195312 6.328125 20.91015625 C5.95533003 17.60381993 5.02252113 16.54764873 3 14 C2.55859375 11.67578125 2.55859375 11.67578125 2.4375 9.3125 C2.35409439 6.9945441 2.35409439 6.9945441 2 5 C1.34 4.67 0.68 4.34 0 4 C0 2.68 0 1.36 0 0 Z " fill="#FBC906" transform="translate(213,158)"/>
<path d="M0 0 C0.66 3.96 1.32 7.92 2 12 C4.97 8.04 7.94 4.08 11 0 C14.91389179 2.34833507 16.64704042 3.4021661 19.3125 6.6875 C20.02442505 7.56498901 20.02442505 7.56498901 20.75073242 8.46020508 C21.16299072 8.9683374 21.57524902 9.47646973 22 10 C20.60974609 11.37285156 20.60974609 11.37285156 19.19140625 12.7734375 C17.98163961 13.9738261 16.77201135 15.17435417 15.5625 16.375 C14.95083984 16.97828125 14.33917969 17.5815625 13.70898438 18.203125 C13.12568359 18.78320312 12.54238281 19.36328125 11.94140625 19.9609375 C11.40201416 20.49509277 10.86262207 21.02924805 10.30688477 21.57958984 C8.89153023 22.98652388 8.89153023 22.98652388 8 25 C8.6290625 25.13535156 9.258125 25.27070313 9.90625 25.41015625 C15.96711017 26.93449909 19.56426648 28.98065019 24.05078125 33.28515625 C27.81856215 36.59989736 32.28276873 38.42758958 37 40 C37 42.97 37 45.94 37 49 C32.5251617 47.61902341 28.46797526 45.85081321 24.2890625 43.7421875 C23.67606293 43.43427277 23.06306335 43.12635803 22.43148804 42.80911255 C20.49406342 41.83484937 18.5595124 40.85503083 16.625 39.875 C15.30357212 39.2092647 13.98195924 38.54389647 12.66015625 37.87890625 C9.43795475 36.25684177 6.21830407 34.62978626 3 33 C3.01160156 34.21558594 3.02320312 35.43117187 3.03515625 36.68359375 C3.04453278 38.26822764 3.05363313 39.85286318 3.0625 41.4375 C3.07087891 42.23994141 3.07925781 43.04238281 3.08789062 43.86914062 C3.0965143 45.91295221 3.0522815 47.95683902 3 50 C2 51 2 51 0.15234375 51.09765625 C-1.8984375 51.06510417 -3.94921875 51.03255208 -6 51 C-6.02698189 49.37509046 -6.04638757 47.75005367 -6.0625 46.125 C-6.07410156 45.22007812 -6.08570312 44.31515625 -6.09765625 43.3828125 C-6 41 -6 41 -5 39 C-4.29792005 31.95618147 -4.67507009 27.76657321 -9 22 C-10.11456369 16.98446342 -10.08964536 12.10978526 -10 7 C-11.32 7 -12.64 7 -14 7 C-13.8046875 5.109375 -13.8046875 5.109375 -13 3 C-10.8203125 1.953125 -10.8203125 1.953125 -8.125 1.25 C-7.24070312 1.00765625 -6.35640625 0.7653125 -5.4453125 0.515625 C-3 0 -3 0 0 0 Z " fill="#F7C607" transform="translate(95,153)"/>
<path d="M0 0 C2.05078125 0.03255208 4.1015625 0.06510417 6.15234375 0.09765625 C6.77644648 3.61250568 7.34410127 7.13429676 7.90234375 10.66015625 C8.07894531 11.65080078 8.25554687 12.64144531 8.4375 13.66210938 C9.48001687 20.48379584 8.98220283 23.40960628 5.15234375 29.09765625 C4.18768633 34.32524832 4.49496854 38.7585586 6.83984375 43.53515625 C9.10530869 46.04553632 11.48951842 48.02656988 14.15234375 50.09765625 C14.15234375 50.75765625 14.15234375 51.41765625 14.15234375 52.09765625 C10.19234375 51.76765625 6.23234375 51.43765625 2.15234375 51.09765625 C0.66734375 41.69265625 0.66734375 41.69265625 -0.84765625 32.09765625 C-2.16765625 35.06765625 -3.48765625 38.03765625 -4.84765625 41.09765625 C-8.00467941 37.18896091 -10.84765625 33.23616235 -10.84765625 28.09765625 C-11.50765625 28.09765625 -12.16765625 28.09765625 -12.84765625 28.09765625 C-13.17765625 33.04765625 -13.50765625 37.99765625 -13.84765625 43.09765625 C-21.72265625 43.09765625 -21.72265625 43.09765625 -25.84765625 42.09765625 C-25.49754684 33.90509607 -25.49754684 33.90509607 -22.78515625 30.53515625 C-22.14578125 30.06078125 -21.50640625 29.58640625 -20.84765625 29.09765625 C-21.193125 28.58847656 -21.53859375 28.07929688 -21.89453125 27.5546875 C-23.24722698 24.06761531 -22.64459833 21.46223305 -22.09765625 17.78515625 C-21.82695312 15.87283203 -21.82695312 15.87283203 -21.55078125 13.921875 C-20.86534445 10.19386038 -19.9527062 6.71716308 -18.84765625 3.09765625 C-15.21765625 3.09765625 -11.58765625 3.09765625 -7.84765625 3.09765625 C-7.359375 5.40885417 -6.87109375 7.72005208 -6.3828125 10.03125 C-6.04012631 12.07426829 -6.04012631 12.07426829 -4.84765625 13.09765625 C-4.71488281 12.24300781 -4.58210938 11.38835937 -4.4453125 10.5078125 C-4.26871094 9.40308594 -4.09210938 8.29835937 -3.91015625 7.16015625 C-3.64912109 5.50693359 -3.64912109 5.50693359 -3.3828125 3.8203125 C-2.65953404 0.14056734 -2.65953404 0.14056734 0 0 Z " fill="#F7C607" transform="translate(179.84765625,151.90234375)"/>
<path d="M0 0 C4.58212196 2.77585887 6.9211147 5.82253224 8.3125 11 C8.59059849 13.76684429 8.51189648 16.20844922 8.3125 19 C7.3225 19 6.3325 19 5.3125 19 C0.72259993 20.28279921 -1.13273678 22.47106559 -4 26.1875 C-8.02179015 30.82493855 -8.02179015 30.82493855 -10.87109375 31.57421875 C-16.57133956 31.02466764 -19.94900442 28.03823619 -23.5 23.875 C-25.71664767 18.50837934 -25.54936866 12.55875461 -23.5 7.125 C-18.37450445 -1.71206129 -9.14375976 -4.459272 0 0 Z " fill="#0D0510" transform="translate(136.6875,113)"/>
<path d="M0 0 C1.93673876 1.21433176 3.77428094 2.47113366 5.57421875 3.87890625 C4.04862815 7.53031981 1.84940966 9.78008737 -0.98828125 12.50390625 C-4.11620179 15.38961306 -4.11620179 15.38961306 -6.42578125 18.87890625 C-2.49502481 18.30437879 -2.49502481 18.30437879 0.57421875 15.87890625 C4.36325583 16.13150872 6.11608468 18.15740068 8.57421875 20.87890625 C7.29590442 24.85588416 4.89297143 26.12999232 1.42578125 28.046875 C-4.21768697 30.58286388 -10.35623795 30.45657056 -16.42578125 29.87890625 C-21.30573257 27.61321456 -24.0581786 24.70517319 -26.42578125 19.87890625 C-27.2555653 15.16268465 -26.91980648 11.84865948 -24.73828125 7.56640625 C-18.44028789 0.24711667 -9.50916291 -4.39473391 0 0 Z " fill="#F7C608" transform="translate(144.42578125,158.12109375)"/>
<path d="M0 0 C3.8029654 1.61828315 5.789288 3.5515356 8 7 C9.05419919 12.16557605 8.52583014 16.80873131 5.875 21.375 C2.76442915 25.74924026 -0.90706963 28.30235654 -6 30 C-10.19171681 30.39544498 -12.48075302 30.26960901 -16.25 28.3125 C-19.66416328 25.44149906 -21.63961069 23.4025954 -22.31640625 18.890625 C-22.6013363 13.41261508 -21.67642069 10.25690817 -18 6 C-12.07523042 0.42285721 -8.03664901 -0.70986174 0 0 Z " fill="#F8C708" transform="translate(79,174)"/>
<path d="M0 0 C4.30619632 2.23590963 7.26400997 4.40473228 9 9 C9.26494748 14.96131836 8.01233914 19.47325841 4 24 C0.30586649 27.09619172 -3.23146383 29.29063688 -8.125 29.5625 C-12.50251167 28.92705476 -14.65811681 27.8644713 -18 25 C-20.57156815 20.79037817 -20.67006447 16.80771259 -20 12 C-15.84837478 3.69674955 -9.3679537 -0.79389438 0 0 Z " fill="#F8C707" transform="translate(208,170)"/>
<path d="M0 0 C21.78 0 43.56 0 66 0 C66 12.375 66 12.375 64.5 17.1875 C64.2215625 18.10917969 63.943125 19.03085938 63.65625 19.98046875 C63.4396875 20.64691406 63.223125 21.31335938 63 22 C59.636539 22 57.3519913 21.70951057 54.15625 20.90625 C53.23972656 20.68066406 52.32320312 20.45507812 51.37890625 20.22265625 C49.45963542 19.74088542 47.54036458 19.25911458 45.62109375 18.77734375 C44.70457031 18.55175781 43.78804687 18.32617188 42.84375 18.09375 C41.59368164 17.77954102 41.59368164 17.77954102 40.31835938 17.45898438 C37.73991936 16.87052757 37.73991936 16.87052757 34 17 C34.66 12.05 35.32 7.1 36 2 C24.45 1.67 12.9 1.34 1 1 C0.67 1.99 0.34 2.98 0 4 C0 2.68 0 1.36 0 0 Z " fill="#D8D8D9" transform="translate(173,136)"/>
<path d="M0 0 C1.65 0 3.3 0 5 0 C5.3984375 3.15234375 5.3984375 3.15234375 5 7 C2.87026454 9.26169314 1.11668013 10.80999384 -1.375 12.5625 C-2.33684204 13.27345825 -2.33684204 13.27345825 -3.31811523 13.9987793 C-18.31014846 24.931916 -38.71769644 36.75293669 -58 35 C-55.78536284 32.78536284 -53.49943685 31.71965573 -50.6940918 30.38745117 C-40.91463429 25.74246088 -32.21223291 20.80362649 -25.08691406 12.4675293 C-21.58290032 8.45736601 -19.46558961 6.1634863 -14.04296875 5.55859375 C-10.31316186 5.72527668 -6.68087584 6.39505201 -3 7 C-2.34 6.67 -1.68 6.34 -1 6 C-0.34227572 2.97065509 -0.34227572 2.97065509 0 0 Z " fill="#DBDCDC" transform="translate(199,204)"/>
<path d="M0 0 C2.30930385 3.46395577 4.46908396 7.00186992 6.625 10.5625 C7.25535156 11.59020508 7.25535156 11.59020508 7.8984375 12.63867188 C11 17.76934101 11 17.76934101 11 20 C12.98 19.34 14.96 18.68 17 18 C19.08476674 22.551645 21.16592833 27.10491517 23.24389648 31.65966797 C23.94996071 33.20600832 24.65697473 34.75191538 25.36499023 36.29736328 C26.38781226 38.53041658 27.40710558 40.7650527 28.42578125 43 C28.73840408 43.68054443 29.05102692 44.36108887 29.37312317 45.06225586 C31.45550448 49.64276095 33.27571809 54.27265146 35 59 C41.04801071 58.45018084 46.30601106 57.09570426 52 55 C52 54.01 52 53.02 52 52 C52.99 52.495 52.99 52.495 54 53 C53 56 53 56 50.5234375 57.28125 C49.48445313 57.6834375 48.44546875 58.085625 47.375 58.5 C43.86424681 59.8759484 40.40435032 61.25458871 37 62.875 C33.83908572 64.06034286 33.00705141 64.30460693 30 63 C28.75488281 61.07324219 28.75488281 61.07324219 27.703125 58.546875 C27.30536865 57.62310059 26.9076123 56.69932617 26.49780273 55.74755859 C26.08602783 54.75836426 25.67425293 53.76916992 25.25 52.75 C21.84621988 44.88046545 18.24790145 37.59342954 13.49609375 30.4609375 C12.13832125 28.22752582 11.43751019 26.55314165 11 24 C10.38866211 23.90033936 9.77732422 23.80067871 9.14746094 23.69799805 C5.47042834 22.50283704 4.10204928 18.99476709 2.25 15.8125 C1.83878906 15.15185547 1.42757813 14.49121094 1.00390625 13.81054688 C-1.3942328 9.77514013 -2.71511244 6.827009 -2 2 C-1.34 1.34 -0.68 0.68 0 0 Z " fill="#1F305C" transform="translate(2,161)"/>
<path d="M0 0 C4.30619632 2.23590963 7.26400997 4.40473228 9 9 C9.03208795 12.08044327 8.77967204 15.01614234 8 18 C7.34 18.66 6.68 19.32 6 20 C6.03480469 19.38511719 6.06960937 18.77023438 6.10546875 18.13671875 C6.13253906 17.32847656 6.15960938 16.52023438 6.1875 15.6875 C6.22230469 14.88699219 6.25710937 14.08648437 6.29296875 13.26171875 C5.93801608 10.52148416 5.10633718 9.70828921 3 8 C2.8453125 9.3921875 2.8453125 9.3921875 2.6875 10.8125 C2 14 2 14 0.875 15.875 C-2.13296839 17.67978104 -4.57862792 17.36014443 -8 17 C-10.4375 15.9375 -10.4375 15.9375 -12 14 C-12.52238806 8.04477612 -12.52238806 8.04477612 -11 5 C-11.66 4.34 -12.32 3.68 -13 3 C-8.46139393 0.34325498 -5.2582423 -0.65728029 0 0 Z " fill="#F6C506" transform="translate(208,170)"/>
<path d="M0 0 C2.30930385 3.46395577 4.46908396 7.00186992 6.625 10.5625 C7.25535156 11.59020508 7.25535156 11.59020508 7.8984375 12.63867188 C11 17.76934101 11 17.76934101 11 20 C12.98 19.34 14.96 18.68 17 18 C17.86366822 19.78710586 18.71568594 21.5798465 19.5625 23.375 C20.03816406 24.37273437 20.51382812 25.37046875 21.00390625 26.3984375 C21.33261719 27.25695312 21.66132813 28.11546875 22 29 C21.67 29.66 21.34 30.32 21 31 C18.6875 30.9375 18.6875 30.9375 16 30 C14.1875 26.4375 14.1875 26.4375 13 23 C11.35 23.33 9.7 23.66 8 24 C5.97158872 21.01823542 3.9758785 18.01682913 2 15 C1.36191406 14.03707031 1.36191406 14.03707031 0.7109375 13.0546875 C-1.6650929 9.24278261 -2.62557572 6.48329269 -2 2 C-1.34 1.34 -0.68 0.68 0 0 Z " fill="#154278" transform="translate(2,161)"/>
<path d="M0 0 C7.25581395 -0.48372093 7.25581395 -0.48372093 10.5 1.625 C12.5246352 4.83067239 12.73327091 6.26031834 12 10 C10.21842286 12.55908624 8.19579737 14.7911324 6 17 C5.01 16.67 4.02 16.34 3 16 C1.796875 13.1640625 1.796875 13.1640625 0.75 9.625 C0.39421875 8.46226562 0.0384375 7.29953125 -0.328125 6.1015625 C-1 3 -1 3 0 0 Z " fill="#406BA7" transform="translate(38,168)"/>
<path d="M0 0 C0.99 0 1.98 0 3 0 C3.33 1.98 3.66 3.96 4 6 C8.29 6.66 12.58 7.32 17 8 C17.33 9.98 17.66 11.96 18 14 C22.29 15.32 26.58 16.64 31 18 C31 18.66 31 19.32 31 20 C24.43189566 21.71341852 19.99224003 19.96168185 14 17 C13.67 16.67 13.34 16.34 13 16 C13 14.02 13 12.04 13 10 C6.07 9.505 6.07 9.505 -1 9 C-0.67 6.03 -0.34 3.06 0 0 Z " fill="#1C2E5C" transform="translate(205,202)"/>
<path d="M0 0 C0.66 0 1.32 0 2 0 C2 3.96 2 7.92 2 12 C1.34 10.68 0.68 9.36 0 8 C-0.13277344 8.84304687 -0.26554688 9.68609375 -0.40234375 10.5546875 C-0.57894531 11.65039062 -0.75554687 12.74609375 -0.9375 13.875 C-1.11152344 14.96554688 -1.28554687 16.05609375 -1.46484375 17.1796875 C-2 20 -2 20 -3 22 C-5.64 21.67 -8.28 21.34 -11 21 C-11.6045009 13.98778952 -11.6045009 13.98778952 -9.921875 11.23828125 C-8.65308695 9.790842 -7.32826569 8.39305914 -6 7 C-5.67 6.01 -5.34 5.02 -5 4 C-3.66666667 3.66666667 -2.33333333 3.33333333 -1 3 C-0.67 2.01 -0.34 1.02 0 0 Z " fill="#F8C708" transform="translate(224,184)"/>
<path d="M0 0 C6.25665665 2.28608608 12.23670421 5.02183943 18.1875 8 C18.85201172 8.33193359 19.51652344 8.66386719 20.20117188 9.00585938 C24.55027645 11.20416546 28.78657782 13.55173394 33 16 C32.67 16.66 32.34 17.32 32 18 C27.74031619 17.44193717 24.34849589 16.43877896 20.48828125 14.56640625 C19.48345703 14.08236328 18.47863281 13.59832031 17.44335938 13.09960938 C16.41017578 12.59236328 15.37699219 12.08511719 14.3125 11.5625 C13.26771484 11.05912109 12.22292969 10.55574219 11.14648438 10.03710938 C3.4793204 6.31954693 3.4793204 6.31954693 0 4 C0 2.68 0 1.36 0 0 Z " fill="#264577" transform="translate(102,193)"/>
<path d="M0 0 C1.04220703 0.10828125 1.04220703 0.10828125 2.10546875 0.21875 C8.04286211 1.22937015 11.93822744 4.70525795 16 9 C18.12551114 13.25102229 17.43325054 18.67317023 16 23.0625 C15.67 23.701875 15.34 24.34125 15 25 C14.14348074 22.32337731 14.02863493 20.48457134 14.1875 17.625 C13.91986216 12.45066837 11.77849427 9.61176043 8 6.1875 C3.66038246 3.61085208 -0.88385306 3.81705092 -5.8125 3.8125 C-6.49892578 3.80025391 -7.18535156 3.78800781 -7.89257812 3.77539062 C-12.60795073 3.76200735 -16.44336601 4.69731935 -21 6 C-23.4375 5.625 -23.4375 5.625 -25 5 C-8.6455774 -1.10565111 -8.6455774 -1.10565111 0 0 Z " fill="#C09F16" transform="translate(41,154)"/>
<path d="M0 0 C0.45375 0.61875 0.9075 1.2375 1.375 1.875 C2.97108919 4.05919833 2.97108919 4.05919833 5 6 C5.99 5.01 6.98 4.02 8 3 C8 5.64 8 8.28 8 11 C8.94101563 11.13277344 9.88203125 11.26554688 10.8515625 11.40234375 C12.09679687 11.57894531 13.34203125 11.75554687 14.625 11.9375 C16.46964844 12.19853516 16.46964844 12.19853516 18.3515625 12.46484375 C21.57556184 12.93774301 24.78812176 13.45151002 28 14 C27.67 14.99 27.34 15.98 27 17 C6.49269311 15.49269311 6.49269311 15.49269311 4 13 C3.95936168 11.33382885 3.957279 9.66611905 4 8 C3.0409375 8.2784375 3.0409375 8.2784375 2.0625 8.5625 C1.381875 8.706875 0.70125 8.85125 0 9 C-0.33 8.67 -0.66 8.34 -1 8 C-0.82364548 5.30917128 -0.38164079 2.67148554 0 0 Z " fill="#263F6E" transform="translate(169,195)"/>
<path d="M0 0 C0.33 0 0.66 0 1 0 C1.08636719 0.58007812 1.17273437 1.16015625 1.26171875 1.7578125 C2.31181017 7.59593543 3.73838045 10.83984758 8 15 C11.52936072 17.33444263 14.58838301 17.20823234 18.75 17.125 C19.92046875 17.10695312 21.0909375 17.08890625 22.296875 17.0703125 C23.63492188 17.03550781 23.63492188 17.03550781 25 17 C22.46274815 19.77889489 20.55547376 20.83668864 16.73046875 21.23828125 C9.45515445 21.45061761 6.08158122 19.83172328 0.6875 14.875 C-1.68532521 10.8324089 -2.24815424 6.67357152 -2 2 C-1.34 1.34 -0.68 0.68 0 0 Z " fill="#224073" transform="translate(52,190)"/>
<path d="M0 0 C0.66 0.33 1.32 0.66 2 1 C0.47987323 6.40489519 -3.27385218 9.98492628 -7 14 C-8.94140625 13.17578125 -8.94140625 13.17578125 -11 12 C-12.21123081 8.36630757 -12.3185315 6.68256751 -10.6875 3.1875 C-7.6349138 -0.76955618 -4.77975461 -0.17070552 0 0 Z " fill="#40699F" transform="translate(138,164)"/>
<path d="M0 0 C0.99 0.33 1.98 0.66 3 1 C2.01 1.495 2.01 1.495 1 2 C1 3.65 1 5.3 1 7 C3.91634129 7.2502157 3.91634129 7.2502157 7 7 C7.66 6.01 8.32 5.02 9 4 C9.75 6.1875 9.75 6.1875 10 9 C8.5 11.8125 8.5 11.8125 6 14 C2.31071492 14.52704073 -0.01830718 14.42791738 -3.4375 12.9375 C-5 11 -5 11 -5.4375 7.5 C-5 4 -5 4 -3.625 2.125 C-2 1 -2 1 0 0 Z " fill="#456C9E" transform="translate(201,173)"/>
<path d="M0 0 C0.99 0.33 1.98 0.66 3 1 C2.01 1.495 2.01 1.495 1 2 C1.33 3.65 1.66 5.3 2 7 C5.71736641 7.34900558 5.71736641 7.34900558 8.8125 5.5 C9.204375 5.005 9.59625 4.51 10 4 C10.3125 6.75 10.3125 6.75 10 10 C7.9375 12.4375 7.9375 12.4375 5 14 C1.15050705 14 -1.04133185 13.86589381 -3.9375 11.25 C-5.24693207 8.47708502 -5.60496057 7.02480283 -5 4 C-2.6875 1.625 -2.6875 1.625 0 0 Z " fill="#3D68A5" transform="translate(71,177)"/>
<path d="M0 0 C7.37441764 2.40638892 13.11190443 4.42708896 18.234375 10.3515625 C21.51982813 13.41895458 25.78561862 14.63477786 30 16 C30 18.97 30 21.94 30 25 C29.34 25 28.68 25 28 25 C27.67 22.69 27.34 20.38 27 18 C26.43152344 17.86464844 25.86304687 17.72929687 25.27734375 17.58984375 C20.78611704 16.33769874 17.80140218 15.16282451 14.6875 11.625 C10.42551377 6.86813859 4.90004019 5.10231317 -1 3 C-0.67 2.01 -0.34 1.02 0 0 Z " fill="#C49F0D" transform="translate(102,177)"/>
<path d="M0 0 C3.63 0.66 7.26 1.32 11 2 C9.54591332 10.96080915 6.7338981 19.34229868 3.83203125 27.91552734 C2.99560005 30.38800619 2.16899752 32.86361231 1.34375 35.33984375 C0.81306856 36.92206581 0.28183818 38.50410388 -0.25 40.0859375 C-0.49588867 40.82137787 -0.74177734 41.55681824 -0.99511719 42.31454468 C-2.13254461 45.66470967 -3.29191834 48.89503788 -5 52 C-5.66 51.67 -6.32 51.34 -7 51 C-6.58113525 49.78417236 -6.16227051 48.56834473 -5.73071289 47.31567383 C-4.17507325 42.7974119 -2.62365028 38.27771156 -1.07348633 33.75756836 C-0.40243311 31.80274705 0.26975756 29.84831582 0.94311523 27.89428711 C1.91169933 25.08289137 2.87616213 22.27011063 3.83984375 19.45703125 C4.14091537 18.58601273 4.441987 17.7149942 4.75218201 16.81758118 C6.08957769 12.90166911 7.35005376 9.10163812 8 5 C3.545 4.01 3.545 4.01 -1 3 C-0.67 2.01 -0.34 1.02 0 0 Z " fill="#CAA611" transform="translate(239,163)"/>
<path d="M0 0 C1.54238266 0.11583111 3.08390272 0.24316572 4.625 0.375 C5.91277344 0.47941406 5.91277344 0.47941406 7.2265625 0.5859375 C8.59941406 0.79089844 8.59941406 0.79089844 10 1 C11.0415625 1.0928125 12.083125 1.185625 13.15625 1.28125 C16 3 16 3 16.94287109 5.41259766 C17.72641223 8.63763012 18.32879129 11.85148892 18.875 15.125 C19.08640625 16.26066406 19.2978125 17.39632812 19.515625 18.56640625 C20.03469985 21.3741293 20.5282404 24.1840068 21 27 C20.01 27.66 19.02 28.32 18 29 C16.35 21.08 14.7 13.16 13 5 C8.71 4.01 4.42 3.02 0 2 C0 1.34 0 0.68 0 0 Z " fill="#BC9C16" transform="translate(213,158)"/>
<path d="M0 0 C-0.33 2.64 -0.66 5.28 -1 8 C0.58941406 8.18175781 0.58941406 8.18175781 2.2109375 8.3671875 C3.59901324 8.53600752 4.98703119 8.70530308 6.375 8.875 C7.42300781 8.99294922 7.42300781 8.99294922 8.4921875 9.11328125 C13.7734375 9.7734375 13.7734375 9.7734375 16 12 C15 13 15 13 11.6875 13.1875 C6.03880962 13.13605473 0.53752916 12.03367211 -5 11 C-4.67 7.7 -4.34 4.4 -4 1 C-1 0 -1 0 0 0 Z " fill="#33517F" transform="translate(150,189)"/>
<path d="M0 0 C2 1 2 1 3.3125 4.5 C4.1478125 6.2325 4.1478125 6.2325 5 8 C6.65821773 8.37309899 8.32577014 8.70700977 10 9 C11.8125 12.0625 11.8125 12.0625 13 15 C12.01 16.485 12.01 16.485 11 18 C9.68 18 8.36 18 7 18 C5.63034792 15.75820623 4.27947192 13.50827662 2.9375 11.25 C2.54755859 10.61578125 2.15761719 9.9815625 1.75585938 9.328125 C-1.08862881 4.49501234 -1.08862881 4.49501234 -0.60327148 1.78417969 C-0.40419189 1.19540039 -0.2051123 0.60662109 0 0 Z " fill="#183669" transform="translate(14,183)"/>
<path d="M0 0 C3.79593523 1.61529159 5.81104128 3.54181311 8 7 C8.3984375 9.4375 8.3984375 9.4375 8.375 12 C8.38273437 12.845625 8.39046875 13.69125 8.3984375 14.5625 C7.9291142 17.43365432 6.89489101 18.83441027 5 21 C5.05800781 20.19175781 5.11601563 19.38351563 5.17578125 18.55078125 C5.6180095 11.7190142 5.6180095 11.7190142 2.625 5.8125 C-1.24149518 3.14277714 -3.28366585 2.71124485 -8 3 C-8.99 3.66 -9.98 4.32 -11 5 C-11 4.34 -11 3.68 -11 3 C-12.32 3.33 -13.64 3.66 -15 4 C-10.48240839 -0.72293669 -6.3352067 -0.55957662 0 0 Z " fill="#C4A00F" transform="translate(79,174)"/>
<path d="M0 0 C3.41158256 1.13719419 4.11854601 2.04342944 6 5 C6 5.66 6 6.32 6 7 C3.87717331 8.00460531 1.75166979 9.00355602 -0.375 10 C-2.15003906 10.8353125 -2.15003906 10.8353125 -3.9609375 11.6875 C-7 13 -7 13 -9 13 C-8.4352699 9.09170915 -6.57868029 7.10079777 -3.9375 4.25 C-3.20402344 3.45078125 -2.47054687 2.6515625 -1.71484375 1.828125 C-1.14894531 1.22484375 -0.58304688 0.6215625 0 0 Z " fill="#F2C40D" transform="translate(140,138)"/>
<path d="M0 0 C0.66 0.99 1.32 1.98 2 3 C2.44859375 3.62777344 2.8971875 4.25554687 3.359375 4.90234375 C3.81828125 5.57394531 4.2771875 6.24554688 4.75 6.9375 C5.21921875 7.60652344 5.6884375 8.27554688 6.171875 8.96484375 C7 11 7 11 6.265625 13.12890625 C5 15 5 15 3 17 C-2.93301435 7.46479836 -2.93301435 7.46479836 -2 2 C-1.34 1.34 -0.68 0.68 0 0 Z " fill="#144479" transform="translate(2,161)"/>
<path d="M0 0 C4.30619632 2.23590963 7.26400997 4.40473228 9 9 C9.03208795 12.08044327 8.77967204 15.01614234 8 18 C7.34 18.66 6.68 19.32 6 20 C6.06960937 19.12988281 6.06960937 19.12988281 6.140625 18.2421875 C6.39997454 12.62912245 5.927456 9.35204583 2 5 C-1.77136956 2.85949295 -5.72887907 2.50248482 -10 2 C-6.24543433 -0.50304378 -4.45254066 -0.45280074 0 0 Z " fill="#C09E12" transform="translate(208,170)"/>
<path d="M0 0 C2.64 0 5.28 0 8 0 C8.55969677 3.62245715 9.09467782 7.24813559 9.625 10.875 C9.78484375 11.90753906 9.9446875 12.94007813 10.109375 14.00390625 C10.25117188 14.99003906 10.39296875 15.97617188 10.5390625 16.9921875 C10.67521973 17.90339355 10.81137695 18.81459961 10.95166016 19.75341797 C10.9676123 20.49479004 10.98356445 21.23616211 11 22 C10.34 22.66 9.68 23.32 9 24 C8.49311395 21.45953542 7.99433126 18.91791124 7.5 16.375 C7.35691406 15.66214844 7.21382812 14.94929687 7.06640625 14.21484375 C6.26950574 10.07855065 5.83965944 6.23566321 6 2 C3.69 2.33 1.38 2.66 -1 3 C-0.67 2.01 -0.34 1.02 0 0 Z " fill="#BF9E14" transform="translate(178,152)"/>
<path d="M0 0 C0.33 0 0.66 0 1 0 C1.02578125 0.72445312 1.0515625 1.44890625 1.078125 2.1953125 C1.43139896 8.21702772 1.87710726 12.30448327 6 17 C7.65191491 18.35156675 9.31522656 19.68962066 11 21 C11 21.66 11 22.32 11 23 C8.703125 23.23828125 8.703125 23.23828125 6 23 C4.234375 21.35546875 4.234375 21.35546875 2.75 19.1875 C2.24984375 18.47980469 1.7496875 17.77210938 1.234375 17.04296875 C-0.83416289 13.61940762 -1.13653172 10.85251893 -1.125 6.9375 C-1.12757813 6.05964844 -1.13015625 5.18179688 -1.1328125 4.27734375 C-1 2 -1 2 0 0 Z " fill="#BF9E14" transform="translate(183,181)"/>
<path d="M0 0 C1.93077009 1.2183469 3.76866843 2.47676057 5.56640625 3.8828125 C4.90640625 5.2028125 4.24640625 6.5228125 3.56640625 7.8828125 C2.13411458 6.61328125 0.70182292 5.34375 -0.73046875 4.07421875 C-4.29713343 1.57918956 -7.94623557 1.76986776 -12.18359375 1.8203125 C-13.1684375 1.82933594 -14.15328125 1.83835938 -15.16796875 1.84765625 C-16.28945312 1.86505859 -16.28945312 1.86505859 -17.43359375 1.8828125 C-13.07696035 -2.4738209 -5.4151211 -2.48591434 0 0 Z " fill="#BD9E18" transform="translate(144.43359375,158.1171875)"/>
<path d="M0 0 C0.99 0 1.98 0 3 0 C3.33 1.98 3.66 3.96 4 6 C6.64 6.33 9.28 6.66 12 7 C12.33 7.99 12.66 8.98 13 10 C6.07 9.505 6.07 9.505 -1 9 C-0.67 6.03 -0.34 3.06 0 0 Z " fill="#19305E" transform="translate(205,202)"/>
<path d="M0 0 C0.33 3.96 0.66 7.92 1 12 C1.99 12.33 2.98 12.66 4 13 C4 13.66 4 14.32 4 15 C1.36 14.34 -1.28 13.68 -4 13 C-4 9.04 -4 5.08 -4 1 C-2 0 -2 0 0 0 Z " fill="#13518D" transform="translate(209,153)"/>
<path d="M0 0 C3.63 0 7.26 0 11 0 C11.50266794 2.12437048 12.0020561 4.24951726 12.5 6.375 C12.7784375 7.55835938 13.056875 8.74171875 13.34375 9.9609375 C14 13 14 13 14 15 C13.01 15 12.02 15 11 15 C10.66127487 13.58461283 10.32925376 12.16762037 10 10.75 C9.814375 9.96109375 9.62875 9.1721875 9.4375 8.359375 C9 6 9 6 9 2 C6.03 2 3.06 2 0 2 C0 1.34 0 0.68 0 0 Z " fill="#C5A10F" transform="translate(161,155)"/>
<path d="M0 0 C2.70331017 2.70331017 3.19915686 5.71542796 4.125 9.3125 C4.30675781 9.97701172 4.48851562 10.64152344 4.67578125 11.32617188 C5.63204455 14.9606914 6.21811505 18.24115057 6 22 C5.34 22.33 4.68 22.66 4 23 C3.15820605 20.27318889 2.32636931 17.54398557 1.5 14.8125 C1.26152344 14.04357422 1.02304687 13.27464844 0.77734375 12.48242188 C-1.44442365 5.08711038 -1.44442365 5.08711038 -1 1 C-0.67 0.67 -0.34 0.34 0 0 Z " fill="#C29F11" transform="translate(43,191)"/>
<path d="M0 0 C0.66 0 1.32 0 2 0 C5 4.38461538 5 4.38461538 5 7 C5.99 7.33 6.98 7.66 8 8 C7.01 8 6.02 8 5 8 C5 8.99 5 9.98 5 11 C3.1875 10.8125 3.1875 10.8125 1 10 C-0.99157067 7.45903052 -2.11333317 6.01999854 -1.75 2.75 C-1 1 -1 1 0 0 Z " fill="#0F528C" transform="translate(8,174)"/>
<path d="M0 0 C0.66 0 1.32 0 2 0 C2 2.31 2 4.62 2 7 C3.216875 6.67 4.43375 6.34 5.6875 6 C8.87210604 5.19677787 11.6972843 4.79358027 15 5 C14.67 5.66 14.34 6.32 14 7 C8.66645094 8.11115605 3.43087408 8.11083416 -2 8 C-2.125 5.125 -2.125 5.125 -2 2 C-1.34 1.34 -0.68 0.68 0 0 Z " fill="#244D7F" transform="translate(83,203)"/>
<path d="M0 0 C-1.75384765 2.66398829 -3.49859182 5.00096668 -6 7 C-9.0238745 7.33598606 -10.99608518 6.77687452 -14 6 C-11.86197902 3.67490219 -9.81401863 2.17832764 -7 0.75 C-6.319375 0.39421875 -5.63875 0.0384375 -4.9375 -0.328125 C-3 -1 -3 -1 0 0 Z " fill="#EBEDEF" transform="translate(152,147)"/>
<path d="M0 0 C0.66 0 1.32 0 2 0 C2 3.96 2 7.92 2 12 C1.34 10.68 0.68 9.36 0 8 C-0.13277344 8.84304687 -0.26554688 9.68609375 -0.40234375 10.5546875 C-0.57894531 11.65039062 -0.75554687 12.74609375 -0.9375 13.875 C-1.11152344 14.96554688 -1.28554687 16.05609375 -1.46484375 17.1796875 C-2 20 -2 20 -3 22 C-3.99 21.67 -4.98 21.34 -6 21 C-5.34 21 -4.68 21 -4 21 C-3.95101562 20.39414063 -3.90203125 19.78828125 -3.8515625 19.1640625 C-2.35135135 2.35135135 -2.35135135 2.35135135 0 0 Z " fill="#BA9F23" transform="translate(224,184)"/>
<path d="M0 0 C0.66 4.62 1.32 9.24 2 14 C1.01 14.66 0.02 15.32 -1 16 C-1.33 11.38 -1.66 6.76 -2 2 C-5.96 2.99 -9.92 3.98 -14 5 C-13 3 -13 3 -10.8203125 2.1484375 C-9.93085937 1.89320313 -9.04140625 1.63796875 -8.125 1.375 C-7.24070312 1.11460937 -6.35640625 0.85421875 -5.4453125 0.5859375 C-3 0 -3 0 0 0 Z " fill="#B99B1B" transform="translate(95,153)"/>
<path d="M0 0 C0.33 0 0.66 0 1 0 C1.08636719 0.56847656 1.17273438 1.13695312 1.26171875 1.72265625 C2.34611131 7.68184105 4.19516635 11.29402154 8 16 C5.69 16 3.38 16 1 16 C0.63705686 13.8973294 0.28493028 11.79278943 -0.0625 9.6875 C-0.35833984 7.92986328 -0.35833984 7.92986328 -0.66015625 6.13671875 C-1 3 -1 3 0 0 Z " fill="#EDC10E" transform="translate(181,187)"/>
<path d="M0 0 C0.33 0 0.66 0 1 0 C1.12117188 0.60328125 1.24234375 1.2065625 1.3671875 1.828125 C1.53476562 2.62734375 1.70234375 3.4265625 1.875 4.25 C2.03742187 5.03890625 2.19984375 5.8278125 2.3671875 6.640625 C2.99150075 8.96831144 3.84838542 10.89031952 5 13 C4.01 13 3.02 13 2 13 C1.67 13.66 1.34 14.32 1 15 C-1.06240906 11.90638642 -1.38991902 10.53301454 -1.75 6.9375 C-1.84796875 6.05964844 -1.9459375 5.18179688 -2.046875 4.27734375 C-2 2 -2 2 0 0 Z " fill="#14467F" transform="translate(52,190)"/>
<path d="M0 0 C0.2475 0.5775 0.495 1.155 0.75 1.75 C2.2567975 4.46223549 3.51243613 6.11751924 6 8 C9.6675213 8.33417929 9.6675213 8.33417929 13 8 C12 9.5625 12 9.5625 10 11 C6.37512051 11.15858848 3.13132995 10.67172716 0 8.8125 C-1.46513422 6.15694423 -1.25843478 3.97200002 -1 1 C-0.67 0.67 -0.34 0.34 0 0 Z " fill="#C6A10E" transform="translate(65,182)"/>
<path d="M0 0 C0.99 0 1.98 0 3 0 C4.20272819 2.40545638 4.10071472 3.94996953 4.0625 6.625 C4.05347656 7.44226563 4.04445313 8.25953125 4.03515625 9.1015625 C4.02355469 9.72804687 4.01195313 10.35453125 4 11 C2.68 10.67 1.36 10.34 0 10 C-0.19412181 8.52168779 -0.38012131 7.04230684 -0.5625 5.5625 C-0.66691406 4.73878906 -0.77132812 3.91507813 -0.87890625 3.06640625 C-0.91886719 2.38449219 -0.95882812 1.70257813 -1 1 C-0.67 0.67 -0.34 0.34 0 0 Z " fill="#1A548C" transform="translate(73,155)"/>
<path d="M0 0 C4.82675589 2.41337795 7.69984002 5.86062408 11 10 C10.01 10.66 9.02 11.32 8 12 C7.61328125 11.52949219 7.2265625 11.05898437 6.828125 10.57421875 C4.10469664 7.3182388 1.58718126 4.34546467 -2 2 C-1.34 1.34 -0.68 0.68 0 0 Z " fill="#BD9D17" transform="translate(106,153)"/>
<path d="M0 0 C3.16466012 1.58233006 3.86506325 4.75716087 5.1875 7.875 C5.47302734 8.51308594 5.75855469 9.15117187 6.05273438 9.80859375 C8.12240415 14.63278754 8.12240415 14.63278754 7 18 C5.63034792 15.75820623 4.27947192 13.50827662 2.9375 11.25 C2.54755859 10.61578125 2.15761719 9.9815625 1.75585938 9.328125 C-1.08862881 4.49501234 -1.08862881 4.49501234 -0.60327148 1.78417969 C-0.40419189 1.19540039 -0.2051123 0.60662109 0 0 Z " fill="#06080A" transform="translate(14,183)"/>
<path d="M0 0 C0.33 0 0.66 0 1 0 C1.185625 1.11375 1.37125 2.2275 1.5625 3.375 C2.036875 4.57125 2.51125 5.7675 3 7 C6.51400668 8.54086322 6.51400668 8.54086322 10 9 C10 9.66 10 10.32 10 11 C2.67784643 11.36010591 2.67784643 11.36010591 0 9.9375 C-1.54340102 6.94716052 -1.2441554 4.29609795 -1 1 C-0.67 0.67 -0.34 0.34 0 0 Z " fill="#BF9E14" transform="translate(195,178)"/>
<path d="M0 0 C4.95 1.98 4.95 1.98 10 4 C10 4.66 10 5.32 10 6 C6.75691762 7.01925446 5.37302767 7.15750057 2.1875 5.8125 C1.465625 5.214375 0.74375 4.61625 0 4 C0 2.68 0 1.36 0 0 Z " fill="#1F497D" transform="translate(102,193)"/>
<path d="M0 0 C2.61456263 2.61456263 3.03303773 4.96146808 4.0625 8.5 C5.27779175 12.84926446 5.27779175 12.84926446 7 17 C5.68 16.67 4.36 16.34 3 16 C2.49193553 14.27318563 1.99389533 12.54342021 1.5 10.8125 C1.08234375 9.36810547 1.08234375 9.36810547 0.65625 7.89453125 C0.03322392 5.14654124 -0.12302812 2.80401584 0 0 Z " fill="#BE9E18" transform="translate(36,169)"/>
<path d="M0 0 C0.91007812 0.00902344 1.82015625 0.01804688 2.7578125 0.02734375 C3.45648438 0.03894531 4.15515625 0.05054688 4.875 0.0625 C4.545 0.7225 4.215 1.3825 3.875 2.0625 C1.54342508 2.40791851 -0.79008361 2.74044257 -3.125 3.0625 C-4.115 3.7225 -5.105 4.3825 -6.125 5.0625 C-6.125 4.4025 -6.125 3.7425 -6.125 3.0625 C-7.445 3.3925 -8.765 3.7225 -10.125 4.0625 C-6.74032128 0.52397224 -4.89499091 -0.06275629 0 0 Z " fill="#CCA812" transform="translate(74.125,173.9375)"/>
<path d="M0 0 C0.66 0 1.32 0 2 0 C2.99 3.96 3.98 7.92 5 12 C4.01 12.66 3.02 13.32 2 14 C1.66179834 12.4176994 1.32964061 10.83410625 1 9.25 C0.814375 8.36828125 0.62875 7.4865625 0.4375 6.578125 C0 4 0 4 0 0 Z " fill="#C39F0F" transform="translate(229,173)"/>
<path d="M0 0 C1.54571278 2.31856917 2.79618552 4.50638429 4 7 C3.360625 7.12375 2.72125 7.2475 2.0625 7.375 C1.0415625 7.684375 1.0415625 7.684375 0 8 C-0.33 8.66 -0.66 9.32 -1 10 C-2.38125018 7.23749964 -2.19079306 5.05268901 -2 2 C-1.34 1.34 -0.68 0.68 0 0 Z " fill="#1A3461" transform="translate(2,161)"/>
<path d="M0 0 C0.66 0.33 1.32 0.66 2 1 C1.34 3.97 0.68 6.94 0 10 C-0.99 9.34 -1.98 8.68 -3 8 C-3.375 5 -3.375 5 -3 2 C-2.01 1.34 -1.02 0.68 0 0 Z " fill="#164279" transform="translate(155,151)"/>
<path d="M0 0 C0 1.65 0 3.3 0 5 C-0.33 3.68 -0.66 2.36 -1 1 C-1.99 1 -2.98 1 -4 1 C-4.33 2.32 -4.66 3.64 -5 5 C-5 4.34 -5 3.68 -5 3 C-7.31 3.33 -9.62 3.66 -12 4 C-12 3.01 -12 2.02 -12 1 C-7.95858806 0.36605303 -4.0934693 -0.12404452 0 0 Z " fill="#46618C" transform="translate(209,201)"/>
<path d="M0 0 C2.475 0.495 2.475 0.495 5 1 C5 2.98 5 4.96 5 7 C4.01 7.33 3.02 7.66 2 8 C0.74335022 5.09399739 0 3.20395416 0 0 Z " fill="#ACB4B2" transform="translate(41,171)"/>
<path d="M0 0 C-4.22949995 2.41685712 -7.12335991 3.34833144 -12 3 C-12 2.01 -12 1.02 -12 0 C-10.37585622 -0.19477739 -8.75063577 -0.38059458 -7.125 -0.5625 C-6.22007813 -0.66691406 -5.31515625 -0.77132812 -4.3828125 -0.87890625 C-2 -1 -2 -1 0 0 Z " fill="#2C416C" transform="translate(77,208)"/>
<path d="M0 0 C2.01136276 2.55991624 3.62845496 5.04590299 5 8 C3.34385343 8.38218767 1.67542976 8.71395102 0 9 C-0.33 8.67 -0.66 8.34 -1 8 C-0.82364548 5.30917128 -0.38164079 2.67148554 0 0 Z " fill="#1A3E74" transform="translate(169,195)"/>
<path d="M0 0 C-0.33 2.64 -0.66 5.28 -1 8 C-1.99 8.33 -2.98 8.66 -4 9 C-4 6.36 -4 3.72 -4 1 C-1 0 -1 0 0 0 Z " fill="#203262" transform="translate(150,189)"/>
<path d="M0 0 C3.79588866 0.54226981 5.47211993 2.20127563 8 5 C7.67 5.99 7.34 6.98 7 8 C4.36 6.02 1.72 4.04 -1 2 C-0.67 1.34 -0.34 0.68 0 0 Z " fill="#C29E11" transform="translate(145,174)"/>
<path d="M0 0 C0.66 0.33 1.32 0.66 2 1 C-1.63 4.96 -5.26 8.92 -9 13 C-9.66 12.67 -10.32 12.34 -11 12 C-7.37 8.04 -3.74 4.08 0 0 Z " fill="#13487F" transform="translate(138,132)"/>
<path d="M0 0 C3.63 0.66 7.26 1.32 11 2 C10.34 2.66 9.68 3.32 9 4 C6.6171875 3.9765625 6.6171875 3.9765625 3.875 3.625 C2.96492187 3.51414063 2.05484375 3.40328125 1.1171875 3.2890625 C0.41851562 3.19367188 -0.28015625 3.09828125 -1 3 C-0.67 2.01 -0.34 1.02 0 0 Z " fill="#B49920" transform="translate(239,163)"/>
<path d="M0 0 C-3.20380017 2.13586678 -4.01939967 2.23132175 -7.6875 2.125 C-8.89986328 2.09792969 -8.89986328 2.09792969 -10.13671875 2.0703125 C-11.05904297 2.03550781 -11.05904297 2.03550781 -12 2 C-8.01065739 -1.98934261 -5.01325969 -2.57824784 0 0 Z " fill="#BCBCBC" transform="translate(153,237)"/>
<path d="M0 0 C0.99 0 1.98 0 3 0 C3 1.98 3 3.96 3 6 C1.02 6.99 1.02 6.99 -1 8 C-0.67 5.36 -0.34 2.72 0 0 Z " fill="#322670" transform="translate(205,202)"/>
<path d="M0 0 C0.66 0 1.32 0 2 0 C3.125 3.75 3.125 3.75 2 6 C-0.97 5.505 -0.97 5.505 -4 5 C-4 4.34 -4 3.68 -4 3 C-3.01 3 -2.02 3 -1 3 C-0.67 2.01 -0.34 1.02 0 0 Z " fill="#174A80" transform="translate(17,179)"/>
<path d="M0 0 C0 2.64 0 5.28 0 8 C-2 6.75 -2 6.75 -4 5 C-4 3.68 -4 2.36 -4 1 C-2 0 -2 0 0 0 Z " fill="#183E74" transform="translate(209,153)"/>
<path d="M0 0 C3.41158256 1.13719419 4.11854601 2.04342944 6 5 C6 5.66 6 6.32 6 7 C4.1875 6.8125 4.1875 6.8125 2 6 C0.25 3.4375 0.25 3.4375 -1 1 C-0.67 0.67 -0.34 0.34 0 0 Z " fill="#BB9C19" transform="translate(140,138)"/>
<path d="M0 0 C1.65 0.33 3.3 0.66 5 1 C3.55746343 4.36591866 1.66735273 6.51047079 -1 9 C-1.66 8.67 -2.32 8.34 -3 8 C-1.35 6.02 0.3 4.04 2 2 C1.34 1.34 0.68 0.68 0 0 Z " fill="#4086B5" transform="translate(123,144)"/>
<path d="M0 0 C-0.99 0.495 -0.99 0.495 -2 1 C-2 1.66 -2 2.32 -2 3 C-4.97 2.67 -7.94 2.34 -11 2 C-6.78370866 -0.10814567 -4.60209225 -0.17700355 0 0 Z " fill="#304570" transform="translate(191,208)"/>
<path d="M0 0 C1.65 0 3.3 0 5 0 C3.7260411 2.03833424 2.38938077 4.03852126 1 6 C0.34 6 -0.32 6 -1 6 C-0.67 4.02 -0.34 2.04 0 0 Z " fill="#070C18" transform="translate(130,168)"/>
<path d="M0 0 C2.64 0 5.28 0 8 0 C8 0.99 8 1.98 8 3 C5.03 3 2.06 3 -1 3 C-0.67 2.01 -0.34 1.02 0 0 Z " fill="#AC972A" transform="translate(178,152)"/>
<path d="M0 0 C1 2 1 2 1.4375 4.9375 C1.82069364 8.15924167 1.82069364 8.15924167 4 11 C2.0625 10.625 2.0625 10.625 0 10 C-1.49106457 7.01787087 -1.11941467 4.28390342 -1 1 C-0.67 0.67 -0.34 0.34 0 0 Z " fill="#C5A314" transform="translate(126,168)"/>
<path d="M0 0 C0.33 0 0.66 0 1 0 C1 1.65 1 3.3 1 5 C2.98 5.495 2.98 5.495 5 6 C5 6.66 5 7.32 5 8 C3.35 8 1.7 8 0 8 C0 5.36 0 2.72 0 0 Z " fill="#4884B4" transform="translate(72,160)"/>
<path d="M0 0 C-0.33 0.99 -0.66 1.98 -1 3 C-3.97 2.67 -6.94 2.34 -10 2 C-6.3558226 -0.4294516 -4.28758728 -0.16179575 0 0 Z " fill="#AE9729" transform="translate(208,170)"/>
<path d="M0 0 C1.23556641 0.01740234 1.23556641 0.01740234 2.49609375 0.03515625 C3.32238281 0.04417969 4.14867187 0.05320313 5 0.0625 C5.63808594 0.07410156 6.27617187 0.08570313 6.93359375 0.09765625 C6.60359375 0.75765625 6.27359375 1.41765625 5.93359375 2.09765625 C3.05859375 2.84765625 3.05859375 2.84765625 -0.06640625 3.09765625 C-1.05640625 2.43765625 -2.04640625 1.77765625 -3.06640625 1.09765625 C-2.06640625 0.09765625 -2.06640625 0.09765625 0 0 Z " fill="#D7B215" transform="translate(198.06640625,171.90234375)"/>
<path d="M0 0 C-0.33 0.99 -0.66 1.98 -1 3 C-2.9375 2.625 -2.9375 2.625 -5 2 C-5.33 1.34 -5.66 0.68 -6 0 C-3.50907189 -1.24546405 -2.58919267 -0.7767578 0 0 Z " fill="#1C3A6E" transform="translate(126,153)"/>
</svg>
